<?xml version="1.0" encoding="UTF-8" standalone="no"?>
<!-- Generator: Adobe Illustrator 16.0.0, SVG Export Plug-In . SVG Version: 6.00 Build 0)  -->

<svg
   xmlns:dc="http://purl.org/dc/elements/1.1/"
   xmlns:cc="http://creativecommons.org/ns#"
   xmlns:rdf="http://www.w3.org/1999/02/22-rdf-syntax-ns#"
   xmlns:svg="http://www.w3.org/2000/svg"
   xmlns="http://www.w3.org/2000/svg"
   xmlns:sodipodi="http://sodipodi.sourceforge.net/DTD/sodipodi-0.dtd"
   xmlns:inkscape="http://www.inkscape.org/namespaces/inkscape"
   version="1.1"
   id="Layer_1"
   x="0px"
   y="0px"
   width="182.5"
   height="124.459"
   viewBox="0 0 182.5 124.459"
   enable-background="new 0 0 300 300"
   xml:space="preserve"
   sodipodi:docname="Folder Icon.svg"
   inkscape:version="0.92.1 r">
  <defs
     id="defs4674" /><sodipodi:namedview
     pagecolor="#ffffff"
     bordercolor="#666666"
     borderopacity="1"
     objecttolerance="10"
     gridtolerance="10"
     guidetolerance="10"
     inkscape:pageopacity="0"
     inkscape:pageshadow="2"
     inkscape:window-width="1598"
     inkscape:window-height="879"
     id="namedview4672"
     showgrid="false"
     fit-margin-top="0"
     fit-margin-left="0"
     fit-margin-right="0"
     fit-margin-bottom="0"
     inkscape:zoom="0.78666667"
     inkscape:cx="-144.78293"
     inkscape:cy="65.942"
     inkscape:window-x="0"
     inkscape:window-y="0"
     inkscape:window-maximized="0"
     inkscape:current-layer="Layer_1" /><g
     id="g4629"
     transform="translate(-63.427,-91.483)"><path
       d="m 160.271,97.691 c -2.75,0 -5,-1.396 -5,-3.104 0,-1.707 -2.25,-3.104 -5,-3.104 H 94.223 c -2.75,0 -5,1.396 -5,3.104 0,1.708 -2.25,3.104 -5,3.104 h -5.195 c -2.75,0 -5,2.25 -5,5 v 108.25 c 0,2.75 2.25,5 5,5 h 161.899 c 2.75,0 5,-2.25 5,-5 v -108.25 c 0,-2.75 -2.25,-5 -5,-5 z"
       id="path4627"
       style="fill:#0d88ff" /></g><g
     id="g4642"
     transform="translate(-63.427,-91.483)"><linearGradient
       id="SVGID_1_"
       gradientUnits="userSpaceOnUse"
       x1="159.97659"
       y1="214.38091"
       x2="159.97659"
       y2="42.481899"><stop
         offset="0"
         style="stop-color:#4D4D4D;stop-opacity:0.5"
         id="stop4631" /><stop
         offset="0.4543"
         style="stop-color:#A4A4A4;stop-opacity:0.2728"
         id="stop4633" /><stop
         offset="0.8259"
         style="stop-color:#E6E6E6;stop-opacity:0.0871"
         id="stop4635" /><stop
         offset="1"
         style="stop-color:#FFFFFF;stop-opacity:0"
         id="stop4637" /></linearGradient><path
       d="m 160.271,97.691 c -2.75,0 -5,-1.396 -5,-3.104 0,-1.707 -2.25,-3.104 -5,-3.104 H 94.223 c -2.75,0 -5,1.396 -5,3.104 0,1.708 -2.25,3.104 -5,3.104 h -5.195 c -2.75,0 -5,2.25 -5,5 v 108.25 c 0,2.75 2.25,5 5,5 h 161.899 c 2.75,0 5,-2.25 5,-5 v -108.25 c 0,-2.75 -2.25,-5 -5,-5 z"
       id="path4640"
       style="fill:url(#SVGID_1_)" /></g><g
     id="g4650"
     transform="translate(-63.427,-91.483)"><path
       d="m 76.576,108.003 h -8.807 c -2.388,0 -4.342,1.36 -4.342,3.022 L 73.5,212.92 c 0,1.662 1.954,3.022 4.34,3.022 h 162.726 c 2.39,0 4.342,-1.36 4.342,-3.022 l -8.754,-101.895 c 0,-1.662 -1.952,-3.022 -4.342,-3.022 h -78.641"
       id="path4644"
       style="fill:#5899f9" /><path
       d="m 77.943,108.003 h -8.758 c -2.368,0 -4.306,1.36 -4.306,3.022 l 10,101.895 c 0,1.662 1.938,3.022 4.305,3.022 h 161.418 c 2.369,0 4.306,-1.36 4.306,-3.022"
       id="path4646"
       style="fill:#5899f9" /><path
       d="M 231.921,108.003 H 153.936"
       id="path4648"
       style="fill:#5899f9" /></g><g
     display="none"
     id="g4669"
     style="display:none"
     transform="translate(-63.427,-91.483)"><linearGradient
       id="SVGID_2_"
       gradientUnits="userSpaceOnUse"
       x1="167.0674"
       y1="222.9893"
       x2="143.888"
       y2="100.1673"><stop
         offset="0"
         style="stop-color:#808080;stop-opacity:0.5"
         id="stop4652" /><stop
         offset="0.0385"
         style="stop-color:#888888;stop-opacity:0.4808"
         id="stop4654" /><stop
         offset="0.253"
         style="stop-color:#B3B3B3;stop-opacity:0.3735"
         id="stop4656" /><stop
         offset="0.4615"
         style="stop-color:#D4D4D4;stop-opacity:0.2692"
         id="stop4658" /><stop
         offset="0.66"
         style="stop-color:#ECECEC;stop-opacity:0.17"
         id="stop4660" /><stop
         offset="0.8441"
         style="stop-color:#FAFAFA;stop-opacity:0.0779"
         id="stop4662" /><stop
         offset="1"
         style="stop-color:#FFFFFF;stop-opacity:0"
         id="stop4664" /></linearGradient><path
       display="inline"
       d="m 77.301,108.003 h -8.807 c -2.388,0 -4.342,1.36 -4.342,3.022 L 74.225,212.92 c 0,1.662 1.954,3.022 4.34,3.022 h 162.726 c 2.39,0 4.342,-1.36 4.342,-3.022 l -8.754,-101.895 c 0,-1.662 -1.952,-3.022 -4.342,-3.022 h -78.641"
       id="path4667"
       style="display:inline;fill:url(#SVGID_2_)" /></g></svg>